<?xml version="1.0" encoding="utf-8"?>
<svg viewBox="22.408 35.269 55.183 31.448" xmlns="http://www.w3.org/2000/svg">
  <g transform="matrix(1, 0, 0, -1, 0, 101.985779)">
    <defs>
      <rect id="b" width="100" height="100"/>
    </defs>
    <clipPath id="a">
      <rect width="100" height="100" transform="matrix(1, 0, 0, 1, 0, 0)" overflow="visible"/>
    </clipPath>
    <path clip-path="url(#a)" d="M22.627,40.793l24.308,24.308c0,0,3.065,3.889,6.812-0.399l22.577-22.927   c0.953-0.969,1.456-2.338,1.201-3.674c-0.17-0.896-0.672-1.791-1.875-2.285c-3.005-1.233-4.808,0.74-4.808,0.74l-20.729,20.8   l-20.875-20.8c0,0-2.471-2.311-4.875-0.74C21.959,37.387,22.326,40.492,22.627,40.793"/>
  </g>
</svg>