<svg xmlns="http://www.w3.org/2000/svg" xmlns:xlink="http://www.w3.org/1999/xlink" version="1.1" x="0px" y="0px" viewBox="0 0 100 125" enable-background="new 0 0 100 100" xml:space="preserve"><g><path d="M33.194,90.645c5.168-2.584,6.726-5.268,6.034-10.463c2.994,0.346,5.683-0.301,7.815-2.534   c2.143-2.244,2.753-4.925,2.171-7.783c1.49-0.201,2.985-0.192,4.341-0.622c6.019-1.91,7.835-9.404,3.369-13.872   c-2.813-2.815-5.743-5.514-8.627-8.257c-7.648-7.274-15.299-14.544-22.949-21.816c-1.005-0.955-2.038-1.882-3.008-2.871   c-2.315-2.36-2.355-6.015-0.126-8.354c2.22-2.329,5.906-2.504,8.347-0.258c3.653,3.361,7.227,6.808,10.832,10.221   c5.261,4.981,10.517,9.97,15.783,14.945c1.44,1.36,3.036,2.493,4.885,3.255c2.519,1.038,4.854,0.741,6.851-1.105   c1.005-0.929,1.904-2.024,2.643-3.177c1.736-2.707,3.272-5.544,5.029-8.237c2.372-3.637,7.182-4.322,10.574-1.621   c2.794,2.225,3.452,6.188,1.511,9.445c-2.746,4.608-5.532,9.192-8.303,13.786c-1.362,2.259-2.711,4.526-4.106,6.765   c-0.377,0.604-0.375,1.083-0.058,1.721c1.292,2.6,2.508,5.237,3.776,7.849c4.186,8.619,0.996,18.186-7.568,22.415   c-5.808,2.867-11.65,5.668-17.525,8.395c-7.634,3.543-16.63,0.736-20.951-6.443C33.665,91.581,33.439,91.106,33.194,90.645z"/><path d="M24.126,49.416c0.928,0.017,2.299,0.499,3.422,1.554c5.866,5.51,11.742,11.011,17.57,16.561   c2.381,2.267,2.418,5.994,0.209,8.345c-2.284,2.43-5.965,2.608-8.434,0.305c-5.133-4.788-10.22-9.626-15.327-14.443   c-0.715-0.675-1.455-1.324-2.154-2.015c-1.806-1.787-2.331-4.37-1.382-6.677C18.93,50.859,21.106,49.42,24.126,49.416z"/><path d="M56.891,62.057c-0.059,1.668-1.159,3.578-3.444,4.618c-2.212,1.006-4.444,0.808-6.283-0.819   c-2.744-2.428-5.356-5.007-8.02-7.525c-3.185-3.009-6.373-6.015-9.546-9.036c-1.646-1.567-2.332-3.489-1.819-5.723   c1.065-4.637,6.47-6.244,10.01-2.981c2.202,2.03,4.353,4.116,6.528,6.176c3.312,3.135,6.608,6.287,9.944,9.397   C55.75,57.552,56.92,59.065,56.891,62.057z"/><path d="M16.406,62.396c1.608-0.018,3.019,0.759,4.262,1.94c3.95,3.756,7.906,7.506,11.861,11.256   c0.81,0.769,1.642,1.515,2.439,2.298c2.536,2.494,2.655,6.223,0.29,8.638c-2.333,2.383-6.018,2.397-8.551,0.008   c-4.647-4.384-9.265-8.8-13.93-13.165c-1.804-1.688-2.948-3.58-2.435-6.152C10.921,64.31,13.294,62.379,16.406,62.396z"/><path d="M70.883,20.925c-1.213-0.111-1.965-0.528-2.39-1.416c-0.454-0.948-0.281-1.836,0.385-2.615   c0.257-0.3,0.598-0.536,0.92-0.773c2.124-1.56,4.243-3.125,6.384-4.661c1.297-0.931,2.74-0.763,3.557,0.36   c0.843,1.16,0.597,2.539-0.693,3.502c-2.219,1.656-4.454,3.291-6.709,4.897C71.847,20.568,71.241,20.756,70.883,20.925z"/><path d="M50.945,13.516c-0.001,1.222-0.604,2.136-1.462,2.483c-0.902,0.365-2.116,0.187-2.704-0.593   c-1.88-2.494-3.736-5.009-5.508-7.58c-0.751-1.09-0.349-2.488,0.693-3.191c1.03-0.695,2.449-0.52,3.239,0.529   c1.798,2.388,3.547,4.814,5.283,7.248C50.757,12.795,50.857,13.298,50.945,13.516z"/><path d="M64.495,15.312c-1.786-0.007-2.826-1.621-2.151-3.417c0.376-1,0.856-1.961,1.288-2.94c0.738-1.671,1.445-3.356,2.221-5.009   c0.599-1.276,1.777-1.789,2.971-1.391c1.317,0.439,2.038,1.757,1.477,3.123c-1.168,2.843-2.449,5.641-3.724,8.439   C66.19,14.969,65.414,15.305,64.495,15.312z"/><path d="M58.774,10.721c0.037,1.727-0.783,2.773-2.139,2.902c-1.327,0.126-2.458-0.81-2.631-2.289   c-0.325-2.793-0.621-5.59-0.864-8.391c-0.051-0.59,0.043-1.277,0.314-1.79c0.477-0.905,1.363-1.291,2.384-1.11   c1.063,0.189,1.804,0.829,1.952,1.931c0.273,2.034,0.479,4.077,0.708,6.117C58.602,9.023,58.694,9.956,58.774,10.721z"/></g></svg>