<svg xmlns="http://www.w3.org/2000/svg" data-name="Layer 1" viewBox="0 0 512 640" x="0px" y="0px"><path d="M445,158.775a47.784,47.784,0,1,0-47.784,47.785A47.838,47.838,0,0,0,445,158.775Z"/><circle cx="256" cy="237.432" r="30.006"/><path d="M162.567,158.775a47.784,47.784,0,1,0-47.783,47.785A47.837,47.837,0,0,0,162.567,158.775Z"/><path d="M324.463,307.637v93.371H469.969V307.637a72.753,72.753,0,1,0-145.506,0Z"/><path d="M208.843,339.688v61.32h94.314v-61.32a47.157,47.157,0,1,0-94.314,0Z"/><path d="M42.031,307.637v93.371H187.537V307.637a72.753,72.753,0,1,0-145.506,0Z"/></svg>