<?xml version="1.0" encoding="utf-8"?>
<svg viewBox="0 0 92 108.363" xmlns="http://www.w3.org/2000/svg">
  <g data-name="Group 3155" transform="matrix(1, 0, 0, 1, -493.666992, -902.888)">
    <path data-name="Path 3000" d="M582.545,903.871a3.489,3.489,0,0,0-2.671-.975l-22.533,1.536a3.5,3.5,0,1,0,.476,6.984l13.612-.928-31.971,33.257L525.413,928.5a3.5,3.5,0,0,0-5.495.442l-22.779,34.508a3.5,3.5,0,1,0,5.841,3.856l20.315-30.774,13.534,14.694a3.5,3.5,0,0,0,5.1.054L576.3,915.523l-.409,12.016a3.5,3.5,0,0,0,3.379,3.617c.041,0,.081,0,.121,0a3.5,3.5,0,0,0,3.5-3.381l.724-21.271A3.5,3.5,0,0,0,582.545,903.871Z"/>
    <path data-name="Rectangle 905" d="M496.667,974.38h16a2.86,2.86,0,0,1,3,2.7v31.464a2.86,2.86,0,0,1-3,2.7h-16a2.86,2.86,0,0,1-3-2.7V977.076A2.86,2.86,0,0,1,496.667,974.38Z"/>
    <path data-name="Rectangle 903" d="M531.667,960h16a2.861,2.861,0,0,1,3,2.7v45.847a2.86,2.86,0,0,1-3,2.7h-16a2.86,2.86,0,0,1-3-2.7V962.693A2.861,2.861,0,0,1,531.667,960Z"/>
    <path data-name="Rectangle 902" d="M565.667,945.613h17a2.86,2.86,0,0,1,3,2.7v60.231a2.86,2.86,0,0,1-3,2.7h-17a2.86,2.86,0,0,1-3-2.7V948.309A2.86,2.86,0,0,1,565.667,945.613Z"/>
  </g>
</svg>