<svg xmlns="http://www.w3.org/2000/svg" version="1.1" viewBox="0 0 33 40" x="0px" y="0px"><title>menu</title><path d="M29.465 25.5h-25.93c-0.414 0-0.75-0.336-0.75-0.75s0.336-0.75 0.75-0.75h25.93c0.414 0 0.75 0.336 0.75 0.75s-0.336 0.75-0.75 0.75zM29.465 16.75h-25.93c-0.414 0-0.75-0.336-0.75-0.75s0.336-0.75 0.75-0.75h25.93c0.414 0 0.75 0.336 0.75 0.75s-0.336 0.75-0.75 0.75zM29.465 8h-25.93c-0.414 0-0.75-0.336-0.75-0.75s0.336-0.75 0.75-0.75h25.93c0.414 0 0.75 0.336 0.75 0.75s-0.336 0.75-0.75 0.75z"/></svg>