<?xml version="1.0" encoding="utf-8"?>
<svg viewBox="5.775 17.874 78.449 54.251" xmlns="http://www.w3.org/2000/svg">
  <g>
    <path d="M80.9,72.125H9.1c-1.836,0-3.325-1.489-3.325-3.326c0-1.836,1.489-3.324,3.325-3.324h71.8c1.836,0,3.324,1.488,3.324,3.324   C84.225,70.636,82.736,72.125,80.9,72.125z M80.9,48.324H9.1c-1.836,0-3.325-1.488-3.325-3.325c0-1.836,1.489-3.325,3.325-3.325   h71.8c1.836,0,3.324,1.489,3.324,3.325C84.225,46.836,82.736,48.324,80.9,48.324z M80.9,24.524H9.1   c-1.836,0-3.325-1.489-3.325-3.325s1.489-3.325,3.325-3.325h71.8c1.836,0,3.324,1.489,3.324,3.325S82.736,24.524,80.9,24.524z"/>
  </g>
</svg>