<svg xmlns="http://www.w3.org/2000/svg" data-name="Layer 1" viewBox="0 0 100 125" x="0px" y="0px"><title>Artboard 17</title><path d="M51.1,82.46v3.13A35.6,35.6,0,0,0,66.52,18.48a.73.73,0,0,1-.07-1.26L72.94,13a1.16,1.16,0,0,1,1.27,0A44.24,44.24,0,0,1,51.1,94.24v3.18A1.34,1.34,0,0,1,49,98.54L37.55,91.06a1.34,1.34,0,0,1,0-2.24L49,81.34a1.34,1.34,0,0,1,2.07,1.12ZM62.45,8.94,51,1.46A1.34,1.34,0,0,0,48.9,2.58V5.76A44.24,44.24,0,0,0,25.79,87a1.16,1.16,0,0,0,1.27,0l6.49-4.23a.73.73,0,0,0-.07-1.26A35.6,35.6,0,0,1,48.9,14.41v3.13A1.34,1.34,0,0,0,51,18.66l11.49-7.48a1.34,1.34,0,0,0,0-2.24Zm3.2,19.88a3.1,3.1,0,0,1,2.2.91l2.42,2.42a3.11,3.11,0,0,1,.35,4l-2.36,3.36a20.93,20.93,0,0,1,2.09,5l4,.71A3.1,3.1,0,0,1,77,48.29v3.43a3.11,3.11,0,0,1-2.57,3.06l-4,.71a20.94,20.94,0,0,1-2.09,5l2.36,3.36a3.11,3.11,0,0,1-.35,4l-2.42,2.42a3.11,3.11,0,0,1-4,.35l-3.36-2.36a20.9,20.9,0,0,1-5,2.09l-.71,4A3.11,3.11,0,0,1,51.71,77H48.29a3.11,3.11,0,0,1-3.06-2.57l-.71-4a20.92,20.92,0,0,1-5-2.09l-3.36,2.36a3.11,3.11,0,0,1-4-.35l-2.42-2.42a3.11,3.11,0,0,1-.35-4l2.36-3.36a20.94,20.94,0,0,1-2.09-5l-4-.71A3.1,3.1,0,0,1,23,51.71V48.29a3.1,3.1,0,0,1,2.57-3.06l4-.71a20.94,20.94,0,0,1,2.09-5l-2.36-3.36a3.11,3.11,0,0,1,.35-4l2.42-2.42a3.11,3.11,0,0,1,4-.35l3.36,2.36a20.94,20.94,0,0,1,5-2.09l.71-4A3.11,3.11,0,0,1,48.29,23h3.43a3.11,3.11,0,0,1,3.06,2.57l.71,4a20.92,20.92,0,0,1,5,2.09l3.36-2.36A3.1,3.1,0,0,1,65.65,28.82ZM56.83,47.67a1.38,1.38,0,0,0-1-.72l-.16,0-5.25-.24,1.23-7.46a1,1,0,0,0-1.92-.63L43.15,51.18a1.37,1.37,0,0,0,0,1.23,1.39,1.39,0,0,0,1,.72l.16,0,5.25.24-1.23,7.46a1,1,0,0,0,1.91.63L56.85,48.9A1.36,1.36,0,0,0,56.83,47.67Z"/></svg>