<?xml version="1.0" encoding="utf-8"?>
<svg viewBox="10 15 80 70" xmlns="http://www.w3.org/2000/svg">
  <path d="M34.842,51.5c-0.829,0-1.5,0.671-1.5,1.5c0,0.828,0.671,1.5,1.5,1.5h0.097c0.828,0,1.5-0.672,1.5-1.5  c0-0.829-0.672-1.5-1.5-1.5H34.842z"/>
  <path d="M29.396,54.5h0.098c0.828,0,1.5-0.672,1.5-1.5c0-0.829-0.672-1.5-1.5-1.5h-0.098c-0.828,0-1.5,0.671-1.5,1.5  C27.896,53.828,28.568,54.5,29.396,54.5z"/>
  <path d="M40.285,54.5h0.098c0.828,0,1.5-0.672,1.5-1.5c0-0.829-0.672-1.5-1.5-1.5h-0.098c-0.828,0-1.5,0.671-1.5,1.5  C38.785,53.828,39.457,54.5,40.285,54.5z"/>
  <path d="M51.174,51.5c-0.828,0-1.5,0.671-1.5,1.5c0,0.828,0.672,1.5,1.5,1.5h0.098c0.828,0,1.5-0.672,1.5-1.5  c0-0.829-0.672-1.5-1.5-1.5H51.174z"/>
  <path d="M45.826,51.5h-0.097c-0.829,0-1.5,0.671-1.5,1.5c0,0.828,0.671,1.5,1.5,1.5h0.097c0.828,0,1.5-0.672,1.5-1.5  C47.326,52.171,46.654,51.5,45.826,51.5z"/>
  <path d="M22.5,53c0,0.395,0.16,0.781,0.439,1.061S23.605,54.5,24,54.5h0.049c0.828,0,1.5-0.672,1.5-1.5  c0-0.426-0.18-0.808-0.465-1.081c-0.273-0.287-0.656-0.468-1.084-0.468c-0.828,0-1.5,0.671-1.5,1.499V53z"/>
  <path d="M22.5,47.055c0,0.829,0.672,1.5,1.5,1.5s1.5-0.671,1.5-1.5v-0.107c0-0.828-0.672-1.5-1.5-1.5s-1.5,0.672-1.5,1.5V47.055z"/>
  <path d="M22.5,41.052c0,0.829,0.672,1.5,1.5,1.5s1.5-0.671,1.5-1.5v-0.107c0-0.829-0.672-1.5-1.5-1.5s-1.5,0.671-1.5,1.5V41.052z"/>
  <path d="M24,36.55c0.428,0,0.813-0.182,1.086-0.47c0.284-0.273,0.463-0.655,0.463-1.08c0-0.828-0.672-1.5-1.5-1.5H24  c-0.395,0-0.781,0.16-1.061,0.439S22.5,34.605,22.5,35v0.05C22.5,35.878,23.172,36.55,24,36.55z"/>
  <path d="M45.826,33.5h-0.098c-0.828,0-1.5,0.671-1.5,1.5c0,0.828,0.672,1.5,1.5,1.5h0.098c0.828,0,1.5-0.672,1.5-1.5  C47.326,34.171,46.654,33.5,45.826,33.5z"/>
  <path d="M67.506,33.5c-0.829,0-1.5,0.671-1.5,1.5c0,0.828,0.671,1.5,1.5,1.5h0.097c0.828,0,1.5-0.672,1.5-1.5  c0-0.829-0.672-1.5-1.5-1.5H67.506z"/>
  <path d="M62.061,33.5c-0.828,0-1.5,0.671-1.5,1.5c0,0.828,0.672,1.5,1.5,1.5h0.098c0.828,0,1.5-0.672,1.5-1.5  c0-0.829-0.672-1.5-1.5-1.5H62.061z"/>
  <path d="M58.215,35c0-0.829-0.672-1.5-1.5-1.5h-0.098c-0.829,0-1.5,0.671-1.5,1.5c0,0.828,0.671,1.5,1.5,1.5h0.098  C57.543,36.5,58.215,35.828,58.215,35z"/>
  <path d="M40.382,36.5c0.828,0,1.5-0.672,1.5-1.5c0-0.829-0.672-1.5-1.5-1.5h-0.097c-0.829,0-1.5,0.671-1.5,1.5  c0,0.828,0.671,1.5,1.5,1.5H40.382z"/>
  <path d="M51.27,33.5h-0.097c-0.829,0-1.5,0.671-1.5,1.5c0,0.828,0.671,1.5,1.5,1.5h0.097c0.828,0,1.5-0.672,1.5-1.5  C52.77,34.171,52.098,33.5,51.27,33.5z"/>
  <path d="M34.938,33.5H34.84c-0.828,0-1.5,0.671-1.5,1.5c0,0.828,0.672,1.5,1.5,1.5h0.098c0.828,0,1.5-0.672,1.5-1.5  C36.438,34.171,35.766,33.5,34.938,33.5z"/>
  <path d="M29.396,36.5h0.098c0.828,0,1.5-0.672,1.5-1.5c0-0.829-0.672-1.5-1.5-1.5h-0.098c-0.828,0-1.5,0.671-1.5,1.5  C27.896,35.828,28.568,36.5,29.396,36.5z"/>
  <path d="M72.95,33.5c-0.829,0-1.5,0.671-1.5,1.5c0,0.428,0.181,0.811,0.468,1.084C72.191,36.37,72.574,36.55,73,36.55  c0.828,0,1.5-0.672,1.5-1.5V35c0-0.4-0.156-0.777-0.439-1.061S73.4,33.5,73,33.5H72.95z"/>
  <path d="M73.633,63.828c3.534-1.711,6.084-5.122,6.582-9.173c0.008-0.067,0.015-0.135,0.021-0.202  c0.043-0.411,0.073-0.825,0.073-1.248c0-0.452-0.031-0.896-0.081-1.334c-0.002-0.022-0.007-0.044-0.01-0.066  c-0.693-5.861-5.672-10.409-11.719-10.409c-6.522,0-11.81,5.287-11.81,11.809c0,4.68,2.728,8.711,6.676,10.623  C53.974,66.163,47.002,74.754,47.002,85H90C90,74.753,83.027,66.163,73.633,63.828z"/>
  <path d="M17,28h63v15.893c2.066,2.546,3.31,5.786,3.31,9.313c0,3.49-1.206,6.744-3.31,9.323v0.571c2.687,1.439,5.048,3.358,7,5.633  V15H10v68h34.088c0.191-2.442,0.738-4.792,1.584-7H17V28z M78.75,19c1.379,0,2.5,1.12,2.5,2.5c0,1.382-1.121,2.5-2.5,2.5  c-1.383,0-2.5-1.118-2.5-2.5C76.25,20.12,77.367,19,78.75,19z M70.75,19c1.381,0,2.5,1.119,2.5,2.5s-1.119,2.5-2.5,2.5  s-2.5-1.119-2.5-2.5S69.369,19,70.75,19z"/>
  <path d="M22,71h26.271c2.279-3.377,5.365-6.176,9.043-8.077c-0.779-0.891-1.434-1.875-1.975-2.923H22V71z"/>
</svg>