<svg xmlns="http://www.w3.org/2000/svg" xmlns:xlink="http://www.w3.org/1999/xlink" version="1.1" x="0px" y="0px" viewBox="0 0 100 125" enable-background="new 0 0 100 100" xml:space="preserve"><path d="M74.8,77.8c-2.3-3-3.6-6.8-3.6-10.6V50.1c4.9-5.6,7.6-13.1,7-21.3c-1.1-14-12.5-25.3-26.5-26.4c-16.4-1.3-30.1,11-31.2,26.9  L20.5,30c0,2.6-1,6.7-2.2,9c-1.3,2.4-2.6,4.8-3.7,6.5c-1.1,1.7,0.1,3.9,2.1,3.9h3.8v13.9c0,2.8,2.3,5.1,5.1,5.1h10.5v5.3  c0,3.6-1.4,7.1-4,9.6l-8,8.1c-2.3,2.4-0.7,6.4,2.6,6.4h27.1h28c3.3,0,5.2-3.8,3.2-6.5L74.8,77.8z M49.4,48.7  c-9.6,0-17.4-7.8-17.4-17.4c0-9.6,7.8-17.4,17.4-17.4c9.6,0,17.4,7.8,17.4,17.4C66.8,40.9,59,48.7,49.4,48.7z M48.2,25.2  c-0.3,0.4-0.5,0.9-0.5,1.5c0,0.6,0.2,1.1,0.5,1.5c0.3,0.4,1,0.8,1.9,1.2c2.1,0.9,3.7,1.8,4.7,2.7c1,0.9,1.5,2.2,1.5,3.9  c0,1.6-0.5,2.9-1.5,3.8c-0.9,0.8-2,1.4-3.3,1.6v2.3c0,0.3-0.2,0.6-0.5,0.6h-2c-0.3,0-0.6-0.2-0.6-0.6v-2.2c-1.7-0.2-3.1-0.8-4.2-1.8  c-1-0.9-1.6-2.3-1.7-4c0-0.4,0.3-0.7,0.6-0.7l3.3-0.1c0.3,0,0.6,0.2,0.6,0.6c0.1,0.8,0.3,1.5,0.7,1.9c0.5,0.5,1.1,0.7,1.9,0.7  c0.7,0,1.2-0.2,1.5-0.6c0.3-0.4,0.5-0.9,0.5-1.5c0-0.7-0.2-1.3-0.5-1.7c-0.3-0.4-1-0.8-1.8-1.2c-2.2-0.9-3.7-1.7-4.7-2.6  c-1-0.9-1.5-2.2-1.5-3.9c0-1.5,0.5-2.8,1.6-3.8c0.9-0.9,2.2-1.5,3.7-1.7v-2.4c0-0.3,0.2-0.6,0.6-0.6h2c0.3,0,0.5,0.2,0.5,0.6v2.5  c1.4,0.3,2.6,0.9,3.4,1.9c0.8,1,1.3,2.2,1.4,3.6c0,0.4-0.3,0.7-0.6,0.7l-3.3,0c-0.3,0-0.6-0.2-0.6-0.6c-0.1-0.7-0.2-1.3-0.6-1.7  c-0.4-0.5-0.9-0.7-1.5-0.7C49,24.6,48.5,24.8,48.2,25.2z"/></svg>