<svg xmlns:dc="http://purl.org/dc/elements/1.1/" xmlns:cc="http://creativecommons.org/ns#" xmlns:rdf="http://www.w3.org/1999/02/22-rdf-syntax-ns#" xmlns:svg="http://www.w3.org/2000/svg" xmlns="http://www.w3.org/2000/svg" xmlns:sodipodi="http://sodipodi.sourceforge.net/DTD/sodipodi-0.dtd" xmlns:inkscape="http://www.inkscape.org/namespaces/inkscape" viewBox="0 0 12.7 15.875" version="1.1" x="0px" y="0px"><g transform="translate(0,-284.29998)"><path style="" d="m 4.3881356,287.23355 a 1.2005298,1.2005298 0 0 0 -1.2004146,1.20044 v 3.50212 a 0.40169044,0.40169044 0 0 0 0.8030104,0 v -2.64687 a 0.1352021,0.1352021 0 0 1 0.2704042,0 v 6.71483 a 0.4668573,0.4668573 0 0 0 0.9337146,0 v -3.75429 a 0.20774999,0.20774999 0 0 1 0.4153958,0 v 3.75429 a 0.46681493,0.46681493 0 0 0 0.93345,0 v -6.95099 h 0.4045479 l 0.7342187,2.3089 a 0.40131566,0.40131566 0 0 0 0.1235604,0.185 0.35180267,0.35180267 0 0 0 -0.3135312,0.34985 v 0.11007 a 0.11726755,0.11726755 0 0 0 0.2344208,0 v -0.11007 a 0.11726755,0.11726755 0 0 1 0.117475,-0.1173 h 0.4418542 a 0.11726755,0.11726755 0 0 1 0.1172104,0.1173 v 0.56586 a 0.99181392,0.99181392 0 0 0 -0.3473979,1.86087 l 0.3473979,0.18396 v 0.67542 A 0.30353217,0.30353217 0 0 1 8.1666501,294.88683 H 7.4784689 a 0.99181392,0.99181392 0 0 0 0.9249833,0.9896 v 0.47698 a 0.11726755,0.11726755 0 0 0 0.2341563,0 v -0.48886 a 0.99181392,0.99181392 0 0 0 0.2981854,-1.85363 l -0.2981854,-0.15814 v -0.68522 a 0.30353217,0.30353217 0 0 1 0.1865312,0.27957 h 0.6881812 a 0.99181392,0.99181392 0 0 0 -0.8747124,-0.98444 v -0.56586 A 0.35180267,0.35180267 0 0 0 8.3238126,291.54698 0.40131566,0.40131566 0 0 0 8.447373,291.1191 l -0.9781645,-3.07578 a 1.1622517,1.1622517 0 0 0 -1.1075458,-0.80977 z m 0.7003521,0.44959 h 0.6278562 l -0.3137958,0.46043 z m 0.3140604,0.67127 0.3685646,1.90893 -0.3685646,0.35036 -0.3688292,-0.35036 z m 3.0009041,4.81315 v 0.56069 l -0.010583,-0.004 a 0.30353217,0.30353217 0 0 1 0.010583,-0.55656 z m 0.2341563,1.46605 a 0.30353217,0.30353217 0 0 1 0,0.50644 z" fill="#000000" stroke="none"/><path style="" d="m 6.418,285.84472 a 1.0157,1.0157 0 1 0 -2.0314,0 1.0157,1.0157 0 1 0 2.0314,0 z" fill="#000000" stroke="none"/></g></svg>