<?xml version="1.0" encoding="utf-8"?>
<svg viewBox="2 2 60 60" xmlns="http://www.w3.org/2000/svg">
  <defs>
    <style type="text/css">
	.st0{display:none;}
	.st1{display:inline;}
	.st2{fill:none;stroke:#B3B3B3;stroke-width:0.1;stroke-miterlimit:10;}
</style>
  </defs>
  <g class="st0">
    <g class="st1">
      <rect x="2" y="2" class="st2" width="60" height="60"/>
      <line class="st2" x1="32" y1="2" x2="32" y2="62"/>
      <line class="st2" x1="62" y1="32" x2="2" y2="32"/>
      <line class="st2" x1="2" y1="2" x2="62" y2="62"/>
      <rect x="10" y="10" class="st2" width="44" height="44"/>
      <line class="st2" x1="62" y1="2" x2="2" y2="62"/>
      <line class="st2" x1="2" y1="32" x2="32" y2="2"/>
      <line class="st2" x1="32" y1="2" x2="62" y2="32"/>
      <line class="st2" x1="62" y1="32" x2="32" y2="62"/>
      <line class="st2" x1="32" y1="62" x2="2" y2="32"/>
      <circle class="st2" cx="32" cy="32" r="21"/>
    </g>
  </g>
  <circle cx="47" cy="49" r="1"/>
  <path d="M62,43c0-2.3-1.2-4.5-3.1-5.8c0.4-2.3-0.3-4.6-1.9-6.2c-1.6-1.6-4-2.3-6.2-1.9C49.5,27.2,47.3,26,45,26s-4.5,1.2-5.8,3.1  c-2.3-0.4-4.6,0.3-6.2,1.9c-1.6,1.6-2.3,4-1.9,6.2C29.2,38.5,28,40.7,28,43s1.2,4.5,3.1,5.8c-0.4,2.3,0.3,4.6,1.9,6.2  c1.6,1.6,4,2.3,6.2,1.9c1.3,1.9,3.4,3.1,5.8,3.1s4.5-1.2,5.8-3.1c2.3,0.4,4.6-0.3,6.2-1.9c1.6-1.6,2.3-4,1.9-6.2  C60.8,47.5,62,45.3,62,43z M42,34c1.7,0,3,1.3,3,3s-1.3,3-3,3s-3-1.3-3-3S40.3,34,42,34z M47,52c-1.7,0-3-1.3-3-3s1.3-3,3-3  s3,1.3,3,3S48.7,52,47,52z M37.7,49.8l-1.3-1.5l16-14l1.3,1.5L37.7,49.8z"/>
  <circle cx="42" cy="37" r="1"/>
  <path d="M30,15c-3.3,0-6,2.7-6,6s2.7,6,6,6s6-2.7,6-6S33.3,15,30,15z"/>
  <path d="M50.1,25.6c0.6-0.3,1.2-0.5,1.9-0.5V17c-3.1-0.4-5.5-2.9-5.9-5.9H13.9C13.5,14.2,11,16.6,8,17v8.1c3.1,0.4,5.5,2.9,5.9,5.9  h16.5c0,0,0.7-1,1.2-1.4c0.4-0.4,0.9-0.8,1.4-1.1c-1,0.3-2,0.5-3,0.5c-4.4,0-8-3.6-8-8s3.6-8,8-8s8,3.6,8,8c0,2.7-1.4,5.2-3.5,6.6  c1.1-0.4,2.2-0.7,3.4-0.7c0.1,0,0.3,0,0.4,0c1.7-1.9,4.1-3,6.7-3C46.9,24,48.7,24.6,50.1,25.6L50.1,25.6z"/>
  <path d="M55,5H5C3.3,5,2,6.3,2,8v26c0,1.7,1.3,3,3,3h23.3l0,0c0.2-0.2,0.4-0.5,0.7-0.7c0-0.1,0-0.2,0-0.3l0,0c0-1.1,0.5-3,0.5-3H12  v-1c0-2.8-2.2-5-5-5H6V15h1c2.8,0,5-2.2,5-5V9h36v1c0,2.8,2.2,5,5,5h1v12.2c1.5,0.3,2.8,1,4,2l0,0V8C58,6.3,56.7,5,55,5z"/>
</svg>